<?xml version="1.0" encoding="UTF-8" standalone="no"?>

<svg
   width="16.139584mm"
   height="16.668749mm"
   viewBox="0 0 16.139584 16.668749"
   version="1.1"
   id="svg5"
   xmlns="http://www.w3.org/2000/svg"
   xmlns:svg="http://www.w3.org/2000/svg">
  <defs
     id="defs2" />
  <g
     id="layer1"
     transform="translate(-111.59526,-178.73237)">
    <g
       style="fill:none"
       id="g18"
       transform="matrix(0.26458333,0,0,0.26458333,111.59526,178.73237)">
      <path
         d="M 59,31.5 C 59,47.8537 46.1798,61 30.5,61 14.8202,61 2,47.8537 2,31.5 2,15.1463 14.8202,2 30.5,2 46.1798,2 59,15.1463 59,31.5 Z"
         fill="#ffffff"
         fill-opacity="0.5"
         stroke="#e20074"
         stroke-width="4"
         id="path9" />
    </g>
    <g
       style="fill:none"
       id="g29"
       transform="matrix(0.26458333,0,0,0.26458333,114.63797,181.90737)">
      <path
         d="M 37,19.5 C 37,29.7419 28.9168,38 19,38 9.0832,38 1,29.7419 1,19.5 1,9.25809 9.0832,1 19,1 28.9168,1 37,9.25809 37,19.5 Z"
         stroke="#e20074"
         stroke-width="2"
         id="path20" />
    </g>
    <g
       style="fill:none"
       id="g40"
       transform="matrix(0.26458333,0,0,0.26458333,117.68067,185.08237)">
      <circle
         cx="7.5"
         cy="7.5"
         r="7.5"
         fill="#e20074"
         id="circle31" />
    </g>
  </g>

</svg>
