<?xml version="1.0" encoding="UTF-8"?>
<svg xmlns="http://www.w3.org/2000/svg" xmlns:xlink="http://www.w3.org/1999/xlink" width="193pt" height="193pt" viewBox="0 0 193 193" version="1.1">
<g id="surface1">
<path style=" stroke:none;fill-rule:evenodd;fill:rgb(100%,100%,100%);fill-opacity:1;" d="M 0 0.242188 L 192.757813 0.242188 L 192.757813 193 L 0 193 L 0 0.242188 "/>
<path style=" stroke:none;fill-rule:evenodd;fill:rgb(92.89856%,10.998535%,14.099121%);fill-opacity:1;" d="M 172.4375 163.976563 C 180.339844 150.628906 184.253906 135.667969 184.253906 119.023438 C 184.253906 94.242188 175.507813 73.070313 157.941406 55.582031 C 146.125 43.691406 132.546875 35.867188 117.359375 32.03125 C 110.683594 30.34375 103.703125 29.421875 96.339844 29.269531 C 89.050781 29.421875 82.070313 30.34375 75.398438 32.03125 C 60.132813 35.867188 46.628906 43.691406 34.816406 55.582031 C 17.25 73.070313 8.503906 94.242188 8.503906 119.023438 C 8.503906 135.667969 12.417969 150.628906 20.316406 163.976563 Z M 175.507813 115.109375 C 175.507813 129.683594 172.359375 142.878906 166.226563 154.464844 L 26.53125 154.464844 C 20.316406 142.878906 17.25 129.683594 17.25 115.109375 C 17.25 94.242188 25.074219 76.445313 40.722656 61.71875 C 51.386719 51.746094 63.429688 45.148438 77.007813 41.925781 C 83.144531 40.46875 89.589844 39.703125 96.339844 39.625 C 103.089844 39.703125 109.535156 40.46875 115.671875 41.925781 C 129.25 45.148438 141.371094 51.746094 151.957031 61.71875 C 167.683594 76.445313 175.507813 94.242188 175.507813 115.109375 "/>
<path style=" stroke:none;fill-rule:evenodd;fill:rgb(92.89856%,10.998535%,14.099121%);fill-opacity:1;" d="M 163.464844 145.179688 L 163.464844 137.894531 L 155.023438 137.894531 L 119.96875 50.59375 L 96.339844 99.765625 L 72.789063 50.59375 L 37.65625 137.894531 L 29.214844 137.894531 L 29.214844 145.179688 L 77.546875 145.179688 L 77.546875 137.894531 L 67.957031 137.894531 L 79.15625 110.046875 L 96.339844 145.949219 L 113.601563 110.046875 L 124.722656 137.894531 L 115.132813 137.894531 L 115.132813 145.179688 L 163.464844 145.179688 "/>
</g>
</svg>
